<mxfile host="app.diagrams.net" agent="Mozilla/5.0 (X11; Linux x86_64; rv:128.0) Gecko/20100101 Firefox/128.0" version="26.0.10">
  <diagram name="Page-1" id="s1GmrqSpjL0UgwaKc16W">
    <mxGraphModel dx="1138" dy="673" grid="1" gridSize="10" guides="1" tooltips="1" connect="1" arrows="1" fold="1" page="1" pageScale="1" pageWidth="850" pageHeight="1100" math="0" shadow="0">
      <root>
        <mxCell id="0" />
        <mxCell id="1" parent="0" />
        <mxCell id="ZlgzihK3tbZlX55SI8tG-37" value="" style="group" vertex="1" connectable="0" parent="1">
          <mxGeometry width="660" height="410" as="geometry" />
        </mxCell>
        <mxCell id="ZlgzihK3tbZlX55SI8tG-36" value="" style="rounded=0;whiteSpace=wrap;html=1;" vertex="1" parent="ZlgzihK3tbZlX55SI8tG-37">
          <mxGeometry width="660" height="410" as="geometry" />
        </mxCell>
        <mxCell id="ZlgzihK3tbZlX55SI8tG-1" value="Cliente" style="rounded=0;whiteSpace=wrap;html=1;fillColor=#d5e8d4;strokeColor=#82b366;" vertex="1" parent="ZlgzihK3tbZlX55SI8tG-37">
          <mxGeometry x="70" y="300" width="120" height="60" as="geometry" />
        </mxCell>
        <mxCell id="ZlgzihK3tbZlX55SI8tG-4" style="edgeStyle=orthogonalEdgeStyle;rounded=0;orthogonalLoop=1;jettySize=auto;html=1;exitX=1;exitY=0.5;exitDx=0;exitDy=0;entryX=0;entryY=0.5;entryDx=0;entryDy=0;endArrow=none;startFill=0;" edge="1" parent="ZlgzihK3tbZlX55SI8tG-37" source="ZlgzihK3tbZlX55SI8tG-2" target="ZlgzihK3tbZlX55SI8tG-3">
          <mxGeometry relative="1" as="geometry" />
        </mxCell>
        <mxCell id="ZlgzihK3tbZlX55SI8tG-5" style="edgeStyle=orthogonalEdgeStyle;rounded=0;orthogonalLoop=1;jettySize=auto;html=1;exitX=0;exitY=0.5;exitDx=0;exitDy=0;entryX=1;entryY=0.5;entryDx=0;entryDy=0;endArrow=none;startFill=0;" edge="1" parent="ZlgzihK3tbZlX55SI8tG-37" source="ZlgzihK3tbZlX55SI8tG-2" target="ZlgzihK3tbZlX55SI8tG-1">
          <mxGeometry relative="1" as="geometry" />
        </mxCell>
        <mxCell id="ZlgzihK3tbZlX55SI8tG-2" value="realizar" style="rhombus;whiteSpace=wrap;html=1;fillColor=#fff2cc;strokeColor=#d6b656;" vertex="1" parent="ZlgzihK3tbZlX55SI8tG-37">
          <mxGeometry x="290" y="290" width="80" height="80" as="geometry" />
        </mxCell>
        <mxCell id="ZlgzihK3tbZlX55SI8tG-3" value="Pedido" style="rounded=0;whiteSpace=wrap;html=1;fillColor=#d5e8d4;strokeColor=#82b366;" vertex="1" parent="ZlgzihK3tbZlX55SI8tG-37">
          <mxGeometry x="470" y="300" width="120" height="60" as="geometry" />
        </mxCell>
        <mxCell id="ZlgzihK3tbZlX55SI8tG-6" value="(1:N)" style="text;html=1;align=center;verticalAlign=middle;resizable=0;points=[];autosize=1;strokeColor=none;fillColor=none;" vertex="1" parent="ZlgzihK3tbZlX55SI8tG-37">
          <mxGeometry x="420" y="300" width="50" height="30" as="geometry" />
        </mxCell>
        <mxCell id="ZlgzihK3tbZlX55SI8tG-7" value="(1:1)" style="text;html=1;align=center;verticalAlign=middle;resizable=0;points=[];autosize=1;strokeColor=none;fillColor=none;" vertex="1" parent="ZlgzihK3tbZlX55SI8tG-37">
          <mxGeometry x="190" y="300" width="50" height="30" as="geometry" />
        </mxCell>
        <mxCell id="ZlgzihK3tbZlX55SI8tG-8" value="1:N" style="text;html=1;align=center;verticalAlign=middle;resizable=0;points=[];autosize=1;strokeColor=none;fillColor=none;fontStyle=1" vertex="1" parent="ZlgzihK3tbZlX55SI8tG-37">
          <mxGeometry x="310" y="260" width="40" height="30" as="geometry" />
        </mxCell>
        <mxCell id="ZlgzihK3tbZlX55SI8tG-9" value="Cliente" style="shape=table;startSize=30;container=1;collapsible=1;childLayout=tableLayout;fixedRows=1;rowLines=0;fontStyle=1;align=center;resizeLast=1;html=1;" vertex="1" parent="ZlgzihK3tbZlX55SI8tG-37">
          <mxGeometry x="40" y="40" width="180" height="120" as="geometry" />
        </mxCell>
        <mxCell id="ZlgzihK3tbZlX55SI8tG-10" value="" style="shape=tableRow;horizontal=0;startSize=0;swimlaneHead=0;swimlaneBody=0;fillColor=none;collapsible=0;dropTarget=0;points=[[0,0.5],[1,0.5]];portConstraint=eastwest;top=0;left=0;right=0;bottom=1;" vertex="1" parent="ZlgzihK3tbZlX55SI8tG-9">
          <mxGeometry y="30" width="180" height="30" as="geometry" />
        </mxCell>
        <mxCell id="ZlgzihK3tbZlX55SI8tG-11" value="PK" style="shape=partialRectangle;connectable=0;fillColor=none;top=0;left=0;bottom=0;right=0;fontStyle=1;overflow=hidden;whiteSpace=wrap;html=1;" vertex="1" parent="ZlgzihK3tbZlX55SI8tG-10">
          <mxGeometry width="30" height="30" as="geometry">
            <mxRectangle width="30" height="30" as="alternateBounds" />
          </mxGeometry>
        </mxCell>
        <mxCell id="ZlgzihK3tbZlX55SI8tG-12" value="id_cliente" style="shape=partialRectangle;connectable=0;fillColor=none;top=0;left=0;bottom=0;right=0;align=left;spacingLeft=6;fontStyle=5;overflow=hidden;whiteSpace=wrap;html=1;" vertex="1" parent="ZlgzihK3tbZlX55SI8tG-10">
          <mxGeometry x="30" width="150" height="30" as="geometry">
            <mxRectangle width="150" height="30" as="alternateBounds" />
          </mxGeometry>
        </mxCell>
        <mxCell id="ZlgzihK3tbZlX55SI8tG-13" value="" style="shape=tableRow;horizontal=0;startSize=0;swimlaneHead=0;swimlaneBody=0;fillColor=none;collapsible=0;dropTarget=0;points=[[0,0.5],[1,0.5]];portConstraint=eastwest;top=0;left=0;right=0;bottom=0;" vertex="1" parent="ZlgzihK3tbZlX55SI8tG-9">
          <mxGeometry y="60" width="180" height="30" as="geometry" />
        </mxCell>
        <mxCell id="ZlgzihK3tbZlX55SI8tG-14" value="" style="shape=partialRectangle;connectable=0;fillColor=none;top=0;left=0;bottom=0;right=0;editable=1;overflow=hidden;whiteSpace=wrap;html=1;" vertex="1" parent="ZlgzihK3tbZlX55SI8tG-13">
          <mxGeometry width="30" height="30" as="geometry">
            <mxRectangle width="30" height="30" as="alternateBounds" />
          </mxGeometry>
        </mxCell>
        <mxCell id="ZlgzihK3tbZlX55SI8tG-15" value="nombre" style="shape=partialRectangle;connectable=0;fillColor=none;top=0;left=0;bottom=0;right=0;align=left;spacingLeft=6;overflow=hidden;whiteSpace=wrap;html=1;" vertex="1" parent="ZlgzihK3tbZlX55SI8tG-13">
          <mxGeometry x="30" width="150" height="30" as="geometry">
            <mxRectangle width="150" height="30" as="alternateBounds" />
          </mxGeometry>
        </mxCell>
        <mxCell id="ZlgzihK3tbZlX55SI8tG-16" value="" style="shape=tableRow;horizontal=0;startSize=0;swimlaneHead=0;swimlaneBody=0;fillColor=none;collapsible=0;dropTarget=0;points=[[0,0.5],[1,0.5]];portConstraint=eastwest;top=0;left=0;right=0;bottom=0;" vertex="1" parent="ZlgzihK3tbZlX55SI8tG-9">
          <mxGeometry y="90" width="180" height="30" as="geometry" />
        </mxCell>
        <mxCell id="ZlgzihK3tbZlX55SI8tG-17" value="" style="shape=partialRectangle;connectable=0;fillColor=none;top=0;left=0;bottom=0;right=0;editable=1;overflow=hidden;whiteSpace=wrap;html=1;" vertex="1" parent="ZlgzihK3tbZlX55SI8tG-16">
          <mxGeometry width="30" height="30" as="geometry">
            <mxRectangle width="30" height="30" as="alternateBounds" />
          </mxGeometry>
        </mxCell>
        <mxCell id="ZlgzihK3tbZlX55SI8tG-18" value="email" style="shape=partialRectangle;connectable=0;fillColor=none;top=0;left=0;bottom=0;right=0;align=left;spacingLeft=6;overflow=hidden;whiteSpace=wrap;html=1;" vertex="1" parent="ZlgzihK3tbZlX55SI8tG-16">
          <mxGeometry x="30" width="150" height="30" as="geometry">
            <mxRectangle width="150" height="30" as="alternateBounds" />
          </mxGeometry>
        </mxCell>
        <mxCell id="ZlgzihK3tbZlX55SI8tG-22" value="Pedido" style="shape=table;startSize=30;container=1;collapsible=1;childLayout=tableLayout;fixedRows=1;rowLines=0;fontStyle=1;align=center;resizeLast=1;html=1;" vertex="1" parent="ZlgzihK3tbZlX55SI8tG-37">
          <mxGeometry x="440" y="40" width="180" height="120" as="geometry" />
        </mxCell>
        <mxCell id="ZlgzihK3tbZlX55SI8tG-23" value="" style="shape=tableRow;horizontal=0;startSize=0;swimlaneHead=0;swimlaneBody=0;fillColor=none;collapsible=0;dropTarget=0;points=[[0,0.5],[1,0.5]];portConstraint=eastwest;top=0;left=0;right=0;bottom=1;" vertex="1" parent="ZlgzihK3tbZlX55SI8tG-22">
          <mxGeometry y="30" width="180" height="30" as="geometry" />
        </mxCell>
        <mxCell id="ZlgzihK3tbZlX55SI8tG-24" value="PK" style="shape=partialRectangle;connectable=0;fillColor=none;top=0;left=0;bottom=0;right=0;fontStyle=1;overflow=hidden;whiteSpace=wrap;html=1;" vertex="1" parent="ZlgzihK3tbZlX55SI8tG-23">
          <mxGeometry width="30" height="30" as="geometry">
            <mxRectangle width="30" height="30" as="alternateBounds" />
          </mxGeometry>
        </mxCell>
        <mxCell id="ZlgzihK3tbZlX55SI8tG-25" value="id_pedido" style="shape=partialRectangle;connectable=0;fillColor=none;top=0;left=0;bottom=0;right=0;align=left;spacingLeft=6;fontStyle=5;overflow=hidden;whiteSpace=wrap;html=1;" vertex="1" parent="ZlgzihK3tbZlX55SI8tG-23">
          <mxGeometry x="30" width="150" height="30" as="geometry">
            <mxRectangle width="150" height="30" as="alternateBounds" />
          </mxGeometry>
        </mxCell>
        <mxCell id="ZlgzihK3tbZlX55SI8tG-32" value="" style="shape=tableRow;horizontal=0;startSize=0;swimlaneHead=0;swimlaneBody=0;fillColor=none;collapsible=0;dropTarget=0;points=[[0,0.5],[1,0.5]];portConstraint=eastwest;top=0;left=0;right=0;bottom=1;" vertex="1" parent="ZlgzihK3tbZlX55SI8tG-22">
          <mxGeometry y="60" width="180" height="30" as="geometry" />
        </mxCell>
        <mxCell id="ZlgzihK3tbZlX55SI8tG-33" value="FK" style="shape=partialRectangle;connectable=0;fillColor=none;top=0;left=0;bottom=0;right=0;fontStyle=1;overflow=hidden;whiteSpace=wrap;html=1;" vertex="1" parent="ZlgzihK3tbZlX55SI8tG-32">
          <mxGeometry width="30" height="30" as="geometry">
            <mxRectangle width="30" height="30" as="alternateBounds" />
          </mxGeometry>
        </mxCell>
        <mxCell id="ZlgzihK3tbZlX55SI8tG-34" value="id_cliente" style="shape=partialRectangle;connectable=0;fillColor=none;top=0;left=0;bottom=0;right=0;align=left;spacingLeft=6;fontStyle=5;overflow=hidden;whiteSpace=wrap;html=1;" vertex="1" parent="ZlgzihK3tbZlX55SI8tG-32">
          <mxGeometry x="30" width="150" height="30" as="geometry">
            <mxRectangle width="150" height="30" as="alternateBounds" />
          </mxGeometry>
        </mxCell>
        <mxCell id="ZlgzihK3tbZlX55SI8tG-29" value="" style="shape=tableRow;horizontal=0;startSize=0;swimlaneHead=0;swimlaneBody=0;fillColor=none;collapsible=0;dropTarget=0;points=[[0,0.5],[1,0.5]];portConstraint=eastwest;top=0;left=0;right=0;bottom=0;" vertex="1" parent="ZlgzihK3tbZlX55SI8tG-22">
          <mxGeometry y="90" width="180" height="30" as="geometry" />
        </mxCell>
        <mxCell id="ZlgzihK3tbZlX55SI8tG-30" value="" style="shape=partialRectangle;connectable=0;fillColor=none;top=0;left=0;bottom=0;right=0;editable=1;overflow=hidden;whiteSpace=wrap;html=1;" vertex="1" parent="ZlgzihK3tbZlX55SI8tG-29">
          <mxGeometry width="30" height="30" as="geometry">
            <mxRectangle width="30" height="30" as="alternateBounds" />
          </mxGeometry>
        </mxCell>
        <mxCell id="ZlgzihK3tbZlX55SI8tG-31" value="descripcion" style="shape=partialRectangle;connectable=0;fillColor=none;top=0;left=0;bottom=0;right=0;align=left;spacingLeft=6;overflow=hidden;whiteSpace=wrap;html=1;" vertex="1" parent="ZlgzihK3tbZlX55SI8tG-29">
          <mxGeometry x="30" width="150" height="30" as="geometry">
            <mxRectangle width="150" height="30" as="alternateBounds" />
          </mxGeometry>
        </mxCell>
        <mxCell id="ZlgzihK3tbZlX55SI8tG-35" style="edgeStyle=orthogonalEdgeStyle;rounded=0;orthogonalLoop=1;jettySize=auto;html=1;exitX=1;exitY=0.5;exitDx=0;exitDy=0;entryX=0;entryY=0.5;entryDx=0;entryDy=0;endArrow=none;startFill=0;" edge="1" parent="ZlgzihK3tbZlX55SI8tG-37" source="ZlgzihK3tbZlX55SI8tG-10" target="ZlgzihK3tbZlX55SI8tG-32">
          <mxGeometry relative="1" as="geometry" />
        </mxCell>
      </root>
    </mxGraphModel>
  </diagram>
</mxfile>
